#!OML:ASF H:\GeneralSubjects\Female5\Project 1\Capture day 1\Session 1\Female5.ASF
:FULLY-SPECIFIED
:DEGREES
67
root 13.2641 15.7884 3.6571 201.313 -87.2695 -198.073
lowerback 12.2326 1.35821 2.58382
upperback -7.22139 2.42564 1.43058
thorax -14.9403 0.917313 -0.442331
lowerneck -14.1944 -0.650234 -3.23211
upperneck 44.0908 -1.77229 -1.65758
head 19.3915 -2.2952 -0.86616
rclavicle 1.63003e-014 1.59028e-014
rhumerus -44.4693 19.8611 -64.0388
rradius 39.1117
rwrist -4.84786
rhand -17.6865 -17.1576
rfingers 7.12502
rthumb 8.57284 -46.9636
lclavicle 1.63003e-014 1.59028e-014
lhumerus -55.3733 5.58852 67.3194
lradius 46.1386
lwrist -7.93646
lhand -28.9062 28.0238
lfingers 7.12502
lthumb -2.26116 57.9915
rfemur -11.7869 5.71742 30.9822
rtibia 8.91684
rfoot -14.6662 -17.5055
rtoes 5.83795
lfemur -49.8499 1.63367 -22.975
ltibia 72.7622
lfoot 160.944 -7.42982
ltoes -40.5818
68
root 13.0491 15.8554 3.6445 196.345 -86.8836 -193.986
lowerback 13.0227 1.49895 3.10972
upperback -6.79129 2.73633 1.28324
thorax -14.8847 1.00782 -1.00222
lowerneck -14.1417 -0.756471 -3.31338
upperneck 43.8839 -1.9318 -1.54341
head 19.2446 -2.34299 -0.814132
rclavicle -4.67144e-015 2.70347e-014
rhumerus -43.0405 19.6818 -62.8581
rradius 40.8859
rwrist -4.86533
rhand -17.9737 -17.7654
rfingers 7.12502
rthumb 8.29575 -47.5825
lclavicle -4.67144e-015 2.70347e-014
lhumerus -55.7061 6.18064 66.2387
lradius 45.9479
lwrist -7.37949
lhand -28.7055 28.136
lfingers 7.12502
lthumb -2.06729 58.1057
rfemur -9.52963 6.14358 31.2288
rtibia 8.10276
rfoot -14.8249 -17.9625
rtoes 3.81416
lfemur -56.7586 -0.0737094 -21.2927
ltibia 68.09
lfoot 160.81 -8.20376
ltoes -44.4659
69
root 12.8388 15.9147 3.63887 194.289 -86.3701 -193.212
lowerback 14.2113 1.63657 3.41322
upperback -6.25792 3.02144 1.12938
thorax -14.9579 1.10737 -1.45642
lowerneck -13.9906 -0.875974 -3.29375
upperneck 43.6215 -2.11933 -1.50705
head 19.0328 -2.39628 -0.819986
rclavicle 5.76476e-015 1.03368e-014
rhumerus -41.7635 19.7526 -61.8692
rradius 42.7621
rwrist -5.02198
rhand -17.5776 -17.5997
rfingers 7.12502
rthumb 8.67798 -47.4013
lclavicle 5.76476e-015 1.03368e-014
lhumerus -56.1324 6.64006 65.3148
lradius 45.9772
lwrist -6.59624
lhand -28.723 29.0064
lfingers 7.12502
lthumb -2.08423 58.9759
rfemur -6.97173 6.43315 31.341
rtibia 7.49842
rfoot -14.8424 -18.2911
rtoes 0.977511
lfemur -62.9233 -1.6069 -19.3237
ltibia 64.6533
lfoot 160.897 -9.30539
ltoes -47.4898
70
root 12.6338 15.9581 3.63574 192.08 -85.8165 -192.503
lowerback 15.5868 1.78089 3.55822
upperback -5.6933 3.29868 1.0333
thorax -15.1135 1.2185 -1.76912
lowerneck -13.7647 -1.02613 -3.0779
upperneck 43.4437 -2.38916 -1.61238
head 18.8501 -2.47671 -0.948512
rclavicle -5.55603e-014 -3.26007e-014
rhumerus -40.618 19.8497 -61.0076
rradius 44.5322
rwrist -5.33516
rhand -16.996 -17.1709
rfingers 7.12502
rthumb 9.23916 -46.9485
lclavicle -5.55603e-014 -3.26007e-014
lhumerus -56.5223 7.09248 64.4171
lradius 45.9278
lwrist -5.97307
lhand -28.8574 29.5473
lfingers 7.12502
lthumb -2.21397 59.5156
rfemur -4.25473 6.84037 31.5641
rtibia 7.05532
rfoot -15.2654 -18.3786
rtoes 0.253339
lfemur -68.3425 -2.88614 -16.9841
ltibia 62.9814
lfoot 162.136 -11.004
ltoes -50.3748
71
root 12.4274 15.9909 3.62901 191.827 -85.0312 -193.722
lowerback 16.8937 1.9961 3.42879
upperback -5.08636 3.59844 0.923213
thorax -15.1792 1.36586 -1.95372
lowerneck -13.8117 -1.10728 -2.85084
upperneck 43.3216 -2.52109 -1.73264
head 18.7785 -2.49928 -1.06634
rclavicle 3.35946e-014 2.62396e-014
rhumerus -39.4595 19.999 -60.2925
rradius 46.1323
rwrist -6.08001
rhand -17.1939 -16.9316
rfingers 7.12502
rthumb 9.04819 -46.7175
lclavicle 3.35946e-014 2.62396e-014
lhumerus -56.6405 7.62697 63.5243
lradius 45.5903
lwrist -5.62932
lhand -28.8567 29.0778
lfingers 7.12502
lthumb -2.21335 59.0461
rfemur -1.59383 7.45236 31.7336
rtibia 6.68414
rfoot -15.9396 -18.3688
rtoes 1.00969
lfemur -73.2868 -3.32138 -14.6378
ltibia 62.0669
lfoot 163.009 -12.1456
ltoes -53.4012
72
root 12.2147 16.0231 3.61853 193.106 -83.8964 -196.5
lowerback 18.2421 2.33277 2.92866
upperback -4.507 3.95884 0.774802
thorax -15.3143 1.56709 -2.00177
lowerneck -13.8997 -1.04006 -2.639
upperneck 43.1853 -2.4593 -1.716
head 18.7113 -2.42707 -1.07821
rclavicle 9.59136e-015 6.36111e-015
rhumerus -38.3145 20.2767 -59.7218
rradius 47.398
rwrist -7.19638
rhand -17.5878 -16.4758
rfingers 7.12502
rthumb 8.66817 -46.2779
lclavicle 9.59136e-015 6.36111e-015
lhumerus -56.7322 8.00565 62.7414
lradius 45.1623
lwrist -5.39685
lhand -29.0071 28.2407
lfingers 7.12502
lthumb -2.35853 58.2074
rfemur 1.06642 8.19094 31.7434
rtibia 6.37614
rfoot -16.2259 -18.4763
rtoes 0.659135
lfemur -77.4208 -3.14674 -12.5765
ltibia 62.4455
lfoot 161.676 -7.72806
ltoes -47.1804
73
root 12.0017 16.0593 3.60489 194.557 -82.6779 -199.409
lowerback 19.6898 2.66566 2.27294
upperback -4.08293 4.25334 0.569825
thorax -15.7036 1.73528 -2.02658
lowerneck -13.7701 -0.933383 -2.39113
upperneck 43.0707 -2.40111 -1.64783
head 18.5978 -2.35226 -1.07085
rclavicle -1.2921e-015 1.66979e-014
rhumerus -37.2792 20.6216 -59.3773
rradius 48.3004
rwrist -8.13469
rhand -17.2601 -16.0009
rfingers 7.12502
rthumb 8.98438 -45.7896
lclavicle -1.2921e-015 1.66979e-014
lhumerus -57.0416 8.06249 62.0123
lradius 44.8635
lwrist -5.23413
lhand -29.2476 28.4125
lfingers 7.12502
lthumb -2.59084 58.3765
rfemur 3.71775 8.95444 31.6425
rtibia 6.00001
rfoot -16.2801 -18.6724
rtoes -0.860708
lfemur -80.978 -2.89745 -10.8166
ltibia 64.0063
lfoot 161.637 -2.09605
ltoes -40.1216
74
root 11.7918 16.0996 3.58598 195.934 -81.6008 -202.035
lowerback 20.9712 2.90489 1.70176
upperback -3.7458 4.4092 0.320765
thorax -16.0888 1.82688 -2.10678
lowerneck -13.6965 -0.850504 -2.34815
upperneck 43.0271 -2.3988 -1.40263
head 18.5533 -2.31252 -0.958521
rclavicle 1.88845e-015 -2.22639e-014
rhumerus -36.3111 21.0271 -59.2927
rradius 48.8758
rwrist -8.50807
rhand -17.0535 -15.3876
rfingers 7.12502
rthumb 9.18374 -45.1676
lclavicle 1.88845e-015 -2.22639e-014
lhumerus -57.1404 8.2181 61.2158
lradius 44.2805
lwrist -5.43189
lhand -29.0918 29.058
lfingers 7.12502
lthumb -2.44033 59.0238
rfemur 6.17682 9.60848 31.4876
rtibia 5.58874
rfoot -16.3922 -18.843
rtoes -2.2723
lfemur -84.0017 -2.49658 -9.24898
ltibia 66.5617
lfoot 163.46 2.20357
ltoes -33.1985
75
root 11.5873 16.1388 3.564 196.615 -80.7409 -203.702
lowerback 21.9216 3.05853 1.32297
upperback -3.46181 4.48207 0.0920532
thorax -16.3236 1.86805 -2.23013
lowerneck -13.7722 -0.664303 -2.39094
upperneck 43.1441 -2.28971 -0.979289
head 18.655 -2.22247 -0.735015
rclavicle 2.85256e-014 1.82882e-014
rhumerus -35.468 21.5175 -59.3888
rradius 49.2816
rwrist -8.61043
rhand -17.6321 -14.9621
rfingers 7.12502
rthumb 8.62543 -44.7659
lclavicle 2.85256e-014 1.82882e-014
lhumerus -56.9168 8.49686 60.4537
lradius 43.4175
lwrist -5.92806
lhand -28.9234 29.1445
lfingers 7.12502
lthumb -2.27773 59.1121
rfemur 8.36494 10.1089 31.4561
rtibia 5.15367
rfoot -16.2913 -19.1959
rtoes -3.42833
lfemur -86.7263 -1.79809 -8.61498
ltibia 69.8968
lfoot 165.836 2.91213
ltoes -29.9063
76
root 11.3907 16.1701 3.54058 195.339 -80.1563 -203.163
lowerback 22.7127 3.10543 1.28944
upperback -3.31873 4.52158 -0.0250763
thorax -16.6157 1.86677 -2.40636
lowerneck -13.57 -0.623918 -2.30031
upperneck 43.2876 -2.37752 -0.843589
head 18.6901 -2.23997 -0.70825
rclavicle -1.19271e-015 -2.38542e-015
rhumerus -34.7067 21.8397 -59.6046
rradius 49.5229
rwrist -8.66991
rhand -17.8715 -15.0438
rfingers 7.12502
rthumb 8.39436 -44.857
lclavicle -1.19271e-015 -2.38542e-015
lhumerus -56.7411 8.46502 59.8942
lradius 42.6603
lwrist -6.22134
lhand -29.3204 29.521
lfingers 7.12502
lthumb -2.66118 59.4841
rfemur 10.2524 10.5025 31.8703
rtibia 4.73619
rfoot -16.0896 -19.6165
rtoes -4.88603
lfemur -89.1534 -0.987039 -7.5244
ltibia 73.564
lfoot 168.226 3.5196
ltoes -25.4865
77
root 11.1962 16.1931 3.51924 192.632 -79.7752 -201.011
lowerback 23.4538 3.04411 1.6228
upperback -3.34011 4.54336 -0.0570615
thorax -17.0583 1.82228 -2.69103
lowerneck -13.3069 -0.533563 -1.90717
upperneck 43.4459 -2.32416 -1.09609
head 18.703 -2.20833 -0.895574
rclavicle -1.03368e-014 -1.66979e-014
rhumerus -34.0003 21.8784 -60.0258
rradius 49.3113
rwrist -8.45489
rhand -17.5829 -15.3934
rfingers 7.12502
rthumb 8.67285 -45.1953
lclavicle -1.03368e-014 -1.66979e-014
lhumerus -56.6187 8.22735 59.3228
lradius 41.8088
lwrist -6.26404
lhand -29.6371 30.2132
lfingers 7.12502
lthumb -2.96699 60.1723
rfemur 11.7351 10.518 32.483
rtibia 4.63733
rfoot -16.106 -19.5543
rtoes -6.09998
lfemur -91.3281 -0.134773 -7.1194
ltibia 77.3961
lfoot 170.738 3.63671
ltoes -22.8456
